<svg height="512" viewBox="0 0 64 64" width="512" xmlns="http://www.w3.org/2000/svg" xmlns:xlink="http://www.w3.org/1999/xlink"><linearGradient id="New_Gradient_Swatch" gradientUnits="userSpaceOnUse" x1="9" x2="9" y1="63.127" y2="-.71"><stop offset="0" stop-color="#e93e3a"/><stop offset=".35" stop-color="#ed683c"/><stop offset=".7" stop-color="#f3903f"/><stop offset="1" stop-color="#fdc70c"/></linearGradient><linearGradient id="New_Gradient_Swatch-2" x1="13" x2="13" xlink:href="#New_Gradient_Swatch" y1="63.127" y2="-.71"/><linearGradient id="New_Gradient_Swatch-3" x1="17" x2="17" xlink:href="#New_Gradient_Swatch" y1="63.127" y2="-.71"/><linearGradient id="New_Gradient_Swatch-4" x1="15" x2="15" xlink:href="#New_Gradient_Swatch" y1="63.127" y2="-.71"/><linearGradient id="New_Gradient_Swatch-5" x1="21" x2="21" xlink:href="#New_Gradient_Swatch" y1="63.127" y2="-.71"/><linearGradient id="New_Gradient_Swatch-6" x1="25" x2="25" xlink:href="#New_Gradient_Swatch" y1="63.127" y2="-.71"/><linearGradient id="New_Gradient_Swatch-7" x1="29" x2="29" xlink:href="#New_Gradient_Swatch" y1="63.127" y2="-.71"/><linearGradient id="New_Gradient_Swatch-8" x1="59" x2="59" xlink:href="#New_Gradient_Swatch" y1="63.127" y2="-.71"/><linearGradient id="New_Gradient_Swatch-13" x1="28" x2="28" xlink:href="#New_Gradient_Swatch" y1="63.127" y2="-.71"/><linearGradient id="New_Gradient_Swatch-14" x1="40" x2="40" xlink:href="#New_Gradient_Swatch" y1="63.127" y2="-.71"/><linearGradient id="New_Gradient_Swatch-15" x1="34" x2="34" xlink:href="#New_Gradient_Swatch" y1="63.127" y2="-.71"/><linearGradient id="New_Gradient_Swatch-16" x1="32" x2="32" xlink:href="#New_Gradient_Swatch" y1="63.127" y2="-.71"/><linearGradient id="New_Gradient_Swatch-21" x1="32.098" x2="32.098" xlink:href="#New_Gradient_Swatch" y1="63.127" y2="-.71"/><linearGradient id="New_Gradient_Swatch-23" x1="35" x2="35" xlink:href="#New_Gradient_Swatch" y1="63.127" y2="-.71"/><linearGradient id="New_Gradient_Swatch-25" x1="30" x2="30" xlink:href="#New_Gradient_Swatch" y1="63.127" y2="-.71"/><linearGradient id="New_Gradient_Swatch-26" x1="37" x2="37" xlink:href="#New_Gradient_Swatch" y1="63.127" y2="-.71"/><path d="m8 6h2v2h-2z" fill="url(#New_Gradient_Swatch)"/><path d="m12 6h2v2h-2z" fill="url(#New_Gradient_Swatch-2)"/><path d="m16 6h2v2h-2z" fill="url(#New_Gradient_Swatch-3)"/><path d="m16 56h-2v2h-2v2h2v2h2v-2h2v-2h-2z" fill="url(#New_Gradient_Swatch-4)"/><path d="m20 58h2v2h-2z" fill="url(#New_Gradient_Swatch-5)"/><path d="m24 58h2v2h-2z" fill="url(#New_Gradient_Swatch-6)"/><path d="m28 58h2v2h-2z" fill="url(#New_Gradient_Swatch-7)"/><path d="m60 32h-2v2h-2v2h2v2h2v-2h2v-2h-2z" fill="url(#New_Gradient_Swatch-8)"/><path d="m58 40h2v2h-2z" fill="url(#New_Gradient_Swatch-8)"/><path d="m58 44h2v2h-2z" fill="url(#New_Gradient_Swatch-8)"/><path d="m58 48h2v2h-2z" fill="url(#New_Gradient_Swatch-8)"/><path d="m21 16h-12a1 1 0 0 0 -1 1v10a1 1 0 0 0 1 1h12a1 1 0 0 0 1-1v-10a1 1 0 0 0 -1-1zm-1 10h-10v-8h10z" fill="url(#New_Gradient_Swatch-4)"/><path d="m26 16h4v2h-4z" fill="url(#New_Gradient_Swatch-13)"/><path d="m32 16h16v2h-16z" fill="url(#New_Gradient_Swatch-14)"/><path d="m26 20h16v2h-16z" fill="url(#New_Gradient_Swatch-15)"/><path d="m26 24h12v2h-12z" fill="url(#New_Gradient_Swatch-16)"/><g fill="url(#New_Gradient_Swatch-4)"><path d="m8 32h14v2h-14z"/><path d="m8 36h14v2h-14z"/><path d="m8 40h14v2h-14z"/><path d="m8 44h14v2h-14z"/></g><path d="m62.162 19.3a1 1 0 0 0 -.466-.608c-.327-.188-.645-.346-.959-.49a12.911 12.911 0 0 0 -6.737-1.185v-12.017a3 3 0 0 0 -3-3h-46a3 3 0 0 0 -3 3v46a3 3 0 0 0 3 3h46a3 3 0 0 0 3-3v-16.98l8.062-13.965a1 1 0 0 0 .1-.755zm-9.633 1.548-.859-1.3a11.123 11.123 0 0 1 2.494-.533 11.465 11.465 0 0 0 -1.635 1.829zm-2.711-.48 1.507 2.287c-.459.755-.916 1.556-1.387 2.388l-2.132-3.233a10.924 10.924 0 0 1 2.012-1.446zm-3.4 2.971 2.408 3.647-1.382 2.394-2.464-3.731.691-1.2a11.177 11.177 0 0 1 .746-1.114zm-2.556 4.246 2.464 3.731-1.382 2.394-2.464-3.731zm4.2 4.731 4.464.269-1.382 2.394-4.464-.268zm1.118-1.936 1.382-2.394 4.464.269-1.382 2.394zm2.491-4.33c.477-.841.936-1.647 1.392-2.394l4.463.269-1.382 2.393zm2.692-4.319a5.464 5.464 0 0 1 2.675-2.13 4.141 4.141 0 0 1 2.767.376l-1.161 2.011zm-49.363-17.731h46a1 1 0 0 1 1 1v5.032h-48v-5.032a1 1 0 0 1 1-1zm46 48h-46a1 1 0 0 1 -1-1v-38.968h48v5.327a12.957 12.957 0 0 0 -8.062 6.088l-3.5 6.063a1 1 0 0 0 .031 1.051l3.356 5.081-5.691 9.858 1.732 1 5.691-9.857 6.079.365h.06a.976.976 0 0 0 .3-.053v14.045a1 1 0 0 1 -.996 1z" fill="url(#New_Gradient_Swatch-21)"/><path d="m26 32h4v2h-4z" fill="url(#New_Gradient_Swatch-13)"/><path d="m32 32h6v2h-6z" fill="url(#New_Gradient_Swatch-23)"/><path d="m26 36h12v2h-12z" fill="url(#New_Gradient_Swatch-16)"/><path d="m26 40h8v2h-8z" fill="url(#New_Gradient_Swatch-25)"/><path d="m36 40h2v2h-2z" fill="url(#New_Gradient_Swatch-26)"/><path d="m26 44h6v2h-6z" fill="url(#New_Gradient_Swatch-7)"/></svg>